<svg width="108" height="34" viewBox="0 0 108 34" fill="none" xmlns="http://www.w3.org/2000/svg">
<path fill-rule="evenodd" clip-rule="evenodd" d="M0 0H108V34H0V0Z" fill="#CC1626"/>
<path fill-rule="evenodd" clip-rule="evenodd" d="M37.684 15.8419C38.0797 15.8419 38.4679 15.7374 38.8038 15.5283C39.4683 15.1252 39.8341 14.4234 39.8341 13.647C39.8341 12.8482 39.4459 12.1166 38.7441 11.7209C38.4231 11.5343 38.0573 11.4372 37.684 11.4372C37.3033 11.4372 36.9374 11.5343 36.609 11.7284C35.9221 12.1315 35.5414 12.8557 35.5414 13.647C35.5414 14.416 35.8997 15.1177 36.5567 15.5209C36.8926 15.7374 37.2809 15.8419 37.684 15.8419ZM27.9937 12.8034V9.26475H29.8974C30.3827 9.26475 30.8008 9.44392 31.1442 9.78734V9.7948C31.5025 10.1308 31.6668 10.5414 31.6668 11.0266C31.6668 11.5193 31.4876 11.93 31.1442 12.2808C30.8008 12.6242 30.3827 12.8034 29.8974 12.8034H29.554H27.9937ZM27.9937 14.5728H29.554H29.8974C30.3678 14.5728 30.8306 14.4757 31.2711 14.2891C31.6892 14.1024 32.0699 13.8561 32.3984 13.5276C32.7194 13.2066 32.9732 12.8258 33.1524 12.4077C33.3465 11.9673 33.4361 11.5044 33.4361 11.0266C33.4361 10.5563 33.3465 10.0934 33.1524 9.66042C32.9732 9.24235 32.7194 8.86161 32.3984 8.54059C32.0699 8.21957 31.6892 7.96574 31.2711 7.77911C30.8306 7.59247 30.3678 7.50288 29.8974 7.50288H26.2318V17.2977H27.9937V14.5728ZM39.9461 16.4615C39.3339 17.111 38.4604 17.4619 37.5496 17.4619C35.4219 17.4619 33.8691 15.7448 33.8691 13.647C33.8691 11.5567 35.4145 9.8172 37.5496 9.8172C38.4604 9.8172 39.3339 10.1755 39.9461 10.8325V9.89932H41.6109V17.3723H39.9461V16.4615ZM48.6957 16.3421C48.1656 16.9841 47.337 17.2902 46.5008 17.2902C44.3209 17.2902 43.2309 15.7822 43.2309 13.7068V9.90679H44.9107V13.6172C44.9107 14.8564 45.4108 15.6702 46.7173 15.6702C48.1208 15.6702 48.7106 14.6549 48.7106 13.3409V9.90679H50.368V16.3346C50.368 18.5743 48.9794 20.1197 46.7024 20.1197C45.5154 20.1197 44.3881 19.7389 43.4773 18.9774L43.3802 18.9028L44.3507 17.8651L44.4329 17.9099C45.1495 18.3429 45.8513 18.5743 46.7024 18.5743C47.9491 18.5743 48.6957 17.9024 48.6957 16.6407V16.3421Z" fill="white"/>
<path fill-rule="evenodd" clip-rule="evenodd" d="M77.1768 11.9225L77.2291 11.818C77.2365 11.8105 77.2365 11.7956 77.244 11.7881V11.7806L77.2962 11.6836H77.3037L77.3186 11.6537L77.3336 11.6388L77.3485 11.6015H77.356C77.3709 11.5716 77.3858 11.5492 77.4008 11.5268L77.4082 11.5119C77.4157 11.5044 77.4232 11.4895 77.4306 11.4746L77.4381 11.4671L77.468 11.4298V11.4223C77.4978 11.3775 77.5277 11.3402 77.5575 11.3028V11.2954C77.5725 11.2804 77.5799 11.273 77.5874 11.2581H77.5949C78.2966 10.3398 79.3791 9.80227 80.5363 9.80227H80.6931C82.7834 9.84706 84.2915 11.5492 84.2915 13.6172C84.2915 15.715 82.7461 17.447 80.6109 17.447C79.7897 17.447 78.9835 17.0961 78.4459 16.4765V20.0002H76.7811V13.4529H76.7886C76.8035 12.9901 76.908 12.5347 77.0947 12.1017L77.1021 12.0867L77.1096 12.0569L77.1245 12.0345L77.1395 11.9971L77.1544 11.9598L77.1768 11.9225ZM52.0403 7.48795H53.8096V17.2828H52.0403V7.48795ZM56.221 12.4003L60.3046 17.3126H57.9754L54.0411 12.4003L57.9754 7.48795H60.3046L56.221 12.4003ZM61.8052 14.1099C61.8649 15.282 62.8056 15.8867 63.9404 15.8867C64.7317 15.8867 65.5231 15.6702 66.2099 15.2671L66.2846 15.2223L67.2177 16.2152L67.1132 16.2973C66.195 16.9991 65.1125 17.4321 63.9404 17.4321C61.7007 17.4321 60.0807 15.8643 60.0807 13.6172C60.0807 11.4223 61.6335 9.78734 63.8508 9.78734C65.3588 9.78734 66.5682 10.5115 67.1655 11.8926C67.4193 12.4899 67.494 13.4081 67.2999 14.0278L67.27 14.1099H61.8052ZM70.0397 14.1099C70.0995 15.282 71.0401 15.8867 72.1749 15.8867C72.9737 15.8867 73.765 15.6702 74.4444 15.2671L74.5265 15.2223L75.4523 16.2152L75.3552 16.2973C74.4295 16.9991 73.347 17.4321 72.1749 17.4321C69.9352 17.4321 68.3227 15.8643 68.3227 13.6172C68.3227 11.4223 69.868 9.78734 72.0928 9.78734C73.5933 9.78734 74.8027 10.5115 75.4 11.8926C75.6613 12.4899 75.7285 13.4081 75.5344 14.0278L75.512 14.1099H70.0397ZM87.0015 14.1099C87.0612 15.282 88.0018 15.8867 89.1366 15.8867C89.928 15.8867 90.7268 15.6702 91.4061 15.2671L91.4883 15.2148L92.414 16.2152L92.3095 16.2973C91.3912 16.9991 90.3087 17.4321 89.1366 17.4321C86.8969 17.4321 85.2844 15.8643 85.2844 13.6172C85.2844 11.4223 86.8298 9.78734 89.0545 9.78734C90.5551 9.78734 91.7645 10.5115 92.3617 11.8926C92.623 12.4899 92.6902 13.4081 92.4961 14.0278L92.4737 14.1099H87.0015ZM78.431 13.6172C78.431 16.6556 82.6192 16.4018 82.6192 13.6172C82.6192 10.8325 78.431 10.5787 78.431 13.6172ZM61.9023 12.781H65.7396C65.7172 12.6541 65.6649 12.5272 65.6127 12.4077C65.2842 11.7135 64.6347 11.3327 63.8657 11.3327C63.0296 11.3327 62.2382 11.7881 61.9545 12.6093C61.9321 12.6616 61.9172 12.7213 61.9023 12.781ZM70.1368 12.781H73.9815C73.9517 12.6541 73.9069 12.5272 73.8472 12.4077C73.5187 11.7135 72.8692 11.3327 72.1077 11.3327C71.2641 11.3327 70.4727 11.7881 70.189 12.6093C70.1741 12.6616 70.1517 12.7213 70.1368 12.781ZM87.0985 12.781H90.9433C90.9134 12.6541 90.8686 12.5272 90.8089 12.4077C90.4804 11.7135 89.8309 11.3327 89.0694 11.3327C88.2258 11.3327 87.4345 11.7881 87.1508 12.6019C87.1284 12.6616 87.1134 12.7213 87.0985 12.781ZM95.5047 10.8773C96.1692 10.1382 97.1023 9.80974 98.1102 9.80974H98.4984L98.5059 11.4746H97.7817C96.1841 11.4746 95.5197 12.5645 95.5197 14.0576V17.3425H93.7951V9.89186H95.5047V10.8773Z" fill="#FFCC00"/>
<path fill-rule="evenodd" clip-rule="evenodd" d="M28.6208 23.5837H26.7096V26.555H26.2318V23.1357H29.1061V26.555H28.6208V23.5837ZM32.5104 23.5837H31.077C31.077 24.263 31.0695 25.1514 30.8978 25.8084C30.8157 26.1145 30.6738 26.443 30.3528 26.555C30.2334 26.5998 30.1139 26.6072 29.9945 26.6072C29.8825 26.6072 29.7183 26.5848 29.6137 26.555L29.5391 26.5326L29.6287 26.0772L29.7183 26.0996C29.7705 26.1145 29.8825 26.1444 29.9422 26.1444C29.9945 26.1444 30.0542 26.1369 30.1065 26.122C30.3304 26.0622 30.4126 25.7786 30.4573 25.5844C30.6141 24.9424 30.6141 24.054 30.6141 23.3896V23.1357H32.9956V26.555H32.5104V23.5837ZM36.2431 24.487V24.4571C36.2431 23.83 35.8624 23.5464 35.2577 23.5464C34.8993 23.5464 34.5858 23.6359 34.2722 23.7927L34.1901 23.8375L34.0109 23.4045L34.0856 23.3672C34.4738 23.188 34.8396 23.0835 35.2726 23.0835C35.6683 23.0835 36.0789 23.1731 36.3626 23.4642C36.6239 23.7255 36.7209 24.0764 36.7209 24.4422V26.555H36.2431V26.1593C35.9445 26.4728 35.5339 26.6296 35.086 26.6296C34.3992 26.6296 33.7422 26.2713 33.7422 25.5098C33.7422 24.6811 34.5261 24.3676 35.2502 24.3676C35.6011 24.3676 35.9147 24.4049 36.2431 24.487ZM38.4903 23.5837H37.2734V23.1357H40.1924V23.5837H38.9681V26.555H38.4903V23.5837ZM41.0883 25.0544C41.1704 25.6815 41.6183 26.1668 42.2753 26.1668C42.7083 26.1668 43.0368 25.9951 43.328 25.6815L43.3877 25.6218L43.7311 25.9279L43.6714 25.9951C43.2757 26.4131 42.8502 26.6296 42.2604 26.6296C41.26 26.6296 40.5806 25.8009 40.5806 24.8379C40.5806 23.9047 41.2376 23.0536 42.2081 23.0536C43.2234 23.0536 43.7908 23.8972 43.7908 24.8454C43.7908 24.8902 43.7834 24.9349 43.7834 24.9797L43.7684 25.0544H41.0883ZM41.3645 22.7625V22.0831H41.9767V22.7625H41.3645ZM42.4097 22.7625V22.0831H43.0144V22.7625H42.4097ZM45.4556 24.6289L44.0745 23.1357H44.7016L46.4411 25.0693V23.1357H46.9263V25.0693L48.6658 23.1357H49.2929L47.9118 24.6289L49.3527 26.555H48.7554L47.5908 24.9797L46.9263 25.7039V26.555H46.4411V25.7039L45.7767 24.9797L44.612 26.555H44.0223L45.4556 24.6289ZM50.3381 24.5766H52.3314V23.1357H52.8167V26.555H52.3314V25.032H50.3381V26.555H49.8603V23.1357H50.3381V24.5766ZM56.0642 24.487V24.4571C56.0642 23.83 55.676 23.5464 55.0787 23.5464C54.7204 23.5464 54.4068 23.6359 54.0933 23.7927L54.0112 23.8375L53.832 23.4045L53.9066 23.3672C54.2948 23.188 54.6607 23.0835 55.0937 23.0835C55.4893 23.0835 55.8925 23.1731 56.1836 23.4642C56.4449 23.7255 56.542 24.0764 56.542 24.4422V26.555H56.0642V26.1593C55.7581 26.4728 55.355 26.6296 54.907 26.6296C54.2127 26.6296 53.5632 26.2713 53.5632 25.5098C53.5632 24.6811 54.3471 24.3676 55.0713 24.3676C55.4221 24.3676 55.7282 24.4049 56.0642 24.487ZM58.1919 25.2261C57.7066 25.0917 57.3184 24.7259 57.3184 24.1884C57.3184 23.4642 57.938 23.1357 58.595 23.1357H60.1404V26.555H59.6551V25.3008H58.707L57.7439 26.555H57.1392L58.1919 25.2261ZM65.4633 23.5837H63.5521V26.555H63.0669V23.1357H65.9411V26.555H65.4633V23.5837ZM69.3529 23.5837H67.9195C67.9195 24.263 67.912 25.1514 67.7328 25.8084C67.6507 26.1145 67.5163 26.443 67.1879 26.555C67.0759 26.5998 66.9564 26.6072 66.837 26.6072C66.725 26.6072 66.5607 26.5848 66.4562 26.555L66.3816 26.5326L66.4712 26.0772L66.5607 26.0996C66.613 26.1145 66.725 26.1444 66.7847 26.1444C66.837 26.1444 66.8967 26.1369 66.949 26.122C67.1655 26.0622 67.2476 25.7786 67.2998 25.5844C67.4492 24.9424 67.4492 24.054 67.4492 23.3896V23.1357H69.8307V26.555H69.3529V23.5837ZM73.0856 24.487V24.4571C73.0856 23.83 72.6974 23.5464 72.1002 23.5464C71.7418 23.5464 71.4283 23.6359 71.1147 23.7927L71.0326 23.8375L70.8534 23.4045L70.9281 23.3672C71.3163 23.188 71.6821 23.0835 72.1151 23.0835C72.5108 23.0835 72.9139 23.1731 73.2051 23.4642C73.4664 23.7255 73.556 24.0764 73.556 24.4422V26.555H73.0856V26.1593C72.7796 26.4728 72.3689 26.6296 71.921 26.6296C71.2342 26.6296 70.5847 26.2713 70.5847 25.5098C70.5847 24.6811 71.3686 24.3676 72.0927 24.3676C72.4436 24.3676 72.7497 24.4049 73.0856 24.487ZM75.3328 23.5837H74.1084V23.1357H77.0275V23.5837H75.8106V26.555H75.3328V23.5837ZM79.6255 26.3534C79.394 26.5251 79.1626 26.6296 78.849 26.6296C77.8487 26.6296 77.4381 25.7188 77.4381 24.8304C77.4381 23.9495 77.8487 23.0536 78.849 23.0536C79.1701 23.0536 79.394 23.1581 79.6255 23.3373V21.9189H80.1033V23.3373C80.3272 23.1581 80.5587 23.0536 80.8797 23.0536C81.8801 23.0536 82.2907 23.957 82.2907 24.8454C82.2907 25.7263 81.8726 26.6296 80.8797 26.6296C80.5363 26.6296 80.3347 26.54 80.1033 26.3609V27.5777H79.6255V26.3534ZM84.6274 26.6296C83.627 26.6296 82.873 25.8308 82.873 24.8454C82.873 23.8599 83.6419 23.0536 84.6348 23.0536C85.6352 23.0536 86.3893 23.8599 86.3893 24.8454C86.3893 25.8233 85.6203 26.6296 84.6274 26.6296ZM87.6659 23.6882C87.9794 23.3 88.3826 23.0536 88.9201 23.0536C89.9055 23.0536 90.5849 23.8898 90.5849 24.8454C90.5849 25.7935 89.8981 26.6296 88.9201 26.6296C88.3975 26.6296 87.9794 26.4057 87.6659 26.0249V27.5777H87.1806V23.1357H87.6659V23.6882ZM93.0859 24.9424L94.3699 23.1357H94.7731V26.555H94.2953V24.0167L93.0709 25.7039L91.8615 24.0241V26.555H91.3912V23.1357H91.8018L93.0859 24.9424ZM98.028 24.487V24.4571C98.028 23.83 97.6398 23.5464 97.0426 23.5464C96.6842 23.5464 96.3707 23.6359 96.0571 23.7927L95.975 23.8375L95.7958 23.4045L95.8705 23.3672C96.2587 23.188 96.6245 23.0835 97.0575 23.0835C97.4532 23.0835 97.8563 23.1731 98.1475 23.4642C98.4088 23.7255 98.5058 24.0764 98.5058 24.4422V26.555H98.028V26.1593C97.722 26.4728 97.3188 26.6296 96.8709 26.6296C96.1766 26.6296 95.5271 26.2713 95.5271 25.5098C95.5271 24.6811 96.311 24.3676 97.0351 24.3676C97.386 24.3676 97.6921 24.4049 98.028 24.487ZM36.2506 24.9499C35.9147 24.8678 35.5862 24.823 35.2278 24.823C34.7799 24.823 34.2498 24.9723 34.2498 25.5098C34.2498 25.9876 34.6754 26.1668 35.1009 26.1668C35.6384 26.1668 36.2506 25.8532 36.2506 25.2485V24.9499ZM41.0958 24.6065H43.2757C43.201 24.0167 42.8502 23.509 42.2007 23.509C41.5735 23.509 41.1704 24.0316 41.0958 24.6065ZM56.0716 24.9499C55.7282 24.8678 55.3997 24.823 55.0489 24.823C54.6009 24.823 54.0709 24.9723 54.0709 25.5098C54.0709 25.9876 54.4964 26.1668 54.922 26.1668C55.4595 26.1668 56.0716 25.8532 56.0716 25.2485V24.9499ZM59.6551 24.8528V23.5837H58.6398C58.2367 23.5837 57.8261 23.7479 57.8261 24.2033C57.8261 24.6587 58.2516 24.8528 58.6547 24.8528H59.6551ZM73.0931 24.9499C72.7497 24.8678 72.4212 24.823 72.0703 24.823C71.6224 24.823 71.0923 24.9723 71.0923 25.5098C71.0923 25.9876 71.5179 26.1668 71.9434 26.1668C72.4809 26.1668 73.0931 25.8532 73.0931 25.2485V24.9499ZM79.6255 25.8233V23.8599C79.4164 23.6509 79.185 23.524 78.8789 23.524C78.1324 23.524 77.9382 24.2257 77.9382 24.8528C77.9382 25.5098 78.11 26.1593 78.8789 26.1593C79.185 26.1593 79.4164 26.0398 79.6255 25.8233ZM80.1033 23.8599V25.8233C80.3123 26.0398 80.5437 26.1593 80.8498 26.1593C81.6188 26.1593 81.783 25.4949 81.783 24.8454C81.783 24.2183 81.5889 23.524 80.8498 23.524C80.5437 23.524 80.3123 23.6509 80.1033 23.8599ZM84.6348 26.1668C85.3515 26.1668 85.8816 25.5322 85.8816 24.8454C85.8816 24.1436 85.3441 23.5165 84.6274 23.5165C83.9107 23.5165 83.3806 24.1436 83.3806 24.8454C83.3806 25.5546 83.9107 26.1668 84.6348 26.1668ZM88.8902 26.1593C89.6442 26.1593 90.0772 25.5695 90.0772 24.8454C90.0772 24.1436 89.6144 23.524 88.8902 23.524C88.1661 23.524 87.6435 24.1511 87.6435 24.8528C87.6435 25.5471 88.1735 26.1593 88.8902 26.1593ZM98.0355 24.9499C97.6921 24.8678 97.3636 24.823 97.0127 24.823C96.5648 24.823 96.0347 24.9723 96.0347 25.5098C96.0347 25.9876 96.4603 26.1668 96.8858 26.1668C97.4233 26.1668 98.0355 25.8532 98.0355 25.2485V24.9499Z" fill="white"/>
<path fill-rule="evenodd" clip-rule="evenodd" d="M14.4288 17.335L19.3486 12.4152L14.4288 7.50288C15.6532 7.50288 16.8775 7.50288 18.1019 7.50288L23.0217 12.4152L18.1019 17.335C16.8775 17.335 15.6532 17.335 14.4288 17.335ZM7.95618 17.335L12.876 12.4152L7.95618 7.50288C9.18053 7.50288 10.4049 7.50288 11.6292 7.50288L16.549 12.4152L11.6292 17.335C10.4049 17.335 9.18053 17.335 7.95618 17.335Z" fill="white"/>
</svg>
