<svg width="89" height="26" viewBox="0 0 89 26" fill="none" xmlns="http://www.w3.org/2000/svg">
<path fill-rule="evenodd" clip-rule="evenodd" d="M4.05841 9.57316C3.87216 10.0388 3.77904 10.5354 3.65488 11.0321C3.34447 12.522 3.09615 14.1051 2.7547 15.595C2.07181 15.595 1.35788 15.595 0.674988 15.595C1.451 10.5665 2.87887 5.66204 3.49968 0.260984C4.18257 0.260984 4.86546 0.260984 5.51731 0.260984C5.42419 0.757633 5.30003 1.22324 5.23795 1.71989C5.23795 1.75093 5.17587 1.78197 5.17587 1.84405C6.10709 0.63347 7.53495 -0.204624 9.80091 0.0437006C12.0358 0.260985 13.2464 2.0303 13.3395 4.11001C13.5568 8.08321 11.4461 11.6839 7.10038 11.3735C5.67252 11.2804 4.5861 10.7527 4.05841 9.57316ZM6.97622 2.0303C5.14483 2.96151 3.37551 7.24511 5.45523 9.0765C6.82102 10.2871 8.96282 9.63523 9.86299 8.51777C10.8873 7.24511 11.8185 3.58232 10.2665 2.27862C9.73883 1.84405 8.90074 1.68885 8.12472 1.78197C7.56599 1.81301 7.28663 1.87509 6.97622 2.0303Z" fill="#030000"/>
<path fill-rule="evenodd" clip-rule="evenodd" d="M22.9311 11.1562C22.2792 11.1562 21.6274 11.1562 20.9445 11.1562C21.0376 10.5354 21.1618 9.94564 21.2859 9.35587C20.6962 10.225 19.6718 11.2183 18.1819 11.3735C16.0401 11.5908 14.0845 10.5044 13.8983 8.73506C13.8362 8.14529 13.8672 7.18303 14.3639 6.43806C15.6055 4.4825 18.8337 4.35834 22.0309 4.45147C22.9932 0.912841 17.8404 1.44053 16.0711 2.58903C16.1642 1.90614 16.3194 1.25428 16.4126 0.571392C19.6097 -0.421906 23.9244 -0.17358 24.1727 3.27192C24.2658 4.63771 23.8623 5.97245 23.614 7.27615C23.3656 8.54882 23.1173 9.79044 22.9311 11.1562ZM16.1642 8.33154C16.2263 9.23171 17.2196 9.72836 18.0267 9.72836C20.2305 9.7594 21.2859 7.83488 21.6274 5.94141C19.1441 5.81725 16.009 6.12766 16.1642 8.33154Z" fill="#030000"/>
<path fill-rule="evenodd" clip-rule="evenodd" d="M27.7113 0.29203C28.1769 3.1788 28.7357 5.97245 29.1702 8.92131C30.8154 6.09662 32.3364 3.14776 33.9505 0.29203C34.6954 0.29203 35.4404 0.29203 36.2164 0.29203C34.2298 3.89274 31.9018 7.83489 29.6669 11.6218C28.984 12.8014 28.3011 14.3844 27.3078 15.1605C26.4387 15.8434 24.7625 15.9986 23.3656 15.7192C23.3967 15.0984 23.614 14.6328 23.645 14.043C23.9244 14.012 24.2658 14.1982 24.6073 14.1982C26.1282 14.1982 26.9663 12.8014 27.5251 11.715C26.8732 7.95905 26.1593 4.23418 25.5074 0.447233C25.4453 0.385152 25.4764 0.354111 25.5074 0.29203C26.2524 0.29203 26.9974 0.29203 27.7113 0.29203Z" fill="#030000"/>
<path fill-rule="evenodd" clip-rule="evenodd" d="M37.1166 17.5195C36.651 20.158 36.0612 22.6412 35.5956 25.2797C34.1367 25.2797 32.6778 25.2797 31.1879 25.2797C31.8708 22.0515 32.4605 18.8543 33.1124 15.6571C33.7642 12.491 34.5402 9.32483 34.9127 5.97244C36.0923 5.87932 37.6753 5.87932 38.8549 5.97244C38.8238 6.71742 38.6376 7.33823 38.5755 8.05216C39.724 6.90366 40.9656 5.38267 43.6041 5.631C46.1184 5.87932 47.5152 7.99008 47.7014 10.6596C48.0429 15.2536 45.808 19.7545 41.7727 20.0649C39.2584 20.2511 38.0789 19.1026 37.1166 17.5195ZM38.8859 10.6596C37.8616 12.1185 37.5201 14.9121 38.8238 15.9985C39.6309 16.6814 41.1208 16.34 41.8037 15.7813C42.6729 15.0673 43.2937 13.7015 43.2626 11.9943C43.2316 10.4423 42.5487 9.13858 40.9036 9.35586C39.9413 9.48003 39.3515 9.97668 38.8859 10.6596Z" fill="#009651"/>
<path fill-rule="evenodd" clip-rule="evenodd" d="M59.7762 19.7855C58.6277 19.7545 57.324 19.8476 56.2686 19.7234C56.3928 19.1026 56.3928 18.3266 56.4859 17.7058C56.1445 18.0472 55.8962 18.5439 55.4616 18.9474C54.0337 20.2511 50.8365 20.5305 49.2535 19.2268C47.5462 17.7989 47.8256 14.3844 49.2535 12.9255C50.8986 11.2183 54.0027 10.7837 57.1999 11.1252C57.5103 9.82149 56.6411 9.01443 55.5547 8.85923C53.9716 8.64194 51.8609 9.32484 50.9297 9.88357C51.1159 8.76611 51.178 7.55552 51.3953 6.43806C52.5127 6.03454 53.5681 5.72413 54.9029 5.66205C58.5967 5.41373 61.142 6.65535 61.3903 9.82148C61.5145 11.4977 61.0178 13.2359 60.6454 14.8811C60.3039 16.4952 60.0556 18.1404 59.7762 19.7855ZM55.3374 13.5774C54.0027 13.6084 52.5438 14.043 52.2334 15.0363C51.985 15.9054 52.6059 16.7125 53.2577 16.8367C55.3064 17.2712 56.7032 15.2536 56.8584 13.6395C56.3928 13.5464 55.7099 13.5774 55.3374 13.5774Z" fill="#009651"/>
<path fill-rule="evenodd" clip-rule="evenodd" d="M73.3099 6.43807C73.0926 7.55553 72.6891 8.48674 72.4718 9.60421C71.3854 9.23172 70.0817 8.67299 68.3745 8.85923C67.6916 8.95236 67.0087 9.2938 67.0087 9.97669C67.0397 10.8148 68.3124 11.1252 69.0884 11.4356C70.1748 11.9012 71.4785 12.522 72.0062 13.4532C72.9064 15.0673 72.0062 17.4264 71.0439 18.4197C70.2369 19.2578 68.7159 19.9407 67.1639 20.0649C65.1462 20.2201 63.0355 19.8476 61.2972 19.382C61.5455 18.2335 61.8249 17.1781 62.1353 16.1227C63.2838 16.5883 64.5875 17.0229 66.3568 16.8677C67.1949 16.7746 68.1261 16.4952 68.002 15.5019C67.9089 14.6949 66.6983 14.4155 65.7981 14.043C64.1219 13.3601 62.8803 12.491 62.8803 10.225C62.8803 5.56893 69.3367 4.79292 73.3099 6.43807Z" fill="#009651"/>
<path fill-rule="evenodd" clip-rule="evenodd" d="M84.2983 6.43807C84.05 7.52449 83.7085 8.54883 83.3981 9.60421C82.3738 9.20068 81.039 8.67299 79.3318 8.85924C78.6489 8.92132 77.966 9.26276 77.966 9.9767C77.997 10.8458 79.5491 11.3114 80.263 11.6218C81.7219 12.2427 83.1187 12.9256 83.305 14.6017C83.4912 16.2469 82.8083 17.5816 81.8461 18.4818C80.9459 19.3509 79.6111 19.9407 78.1212 20.0649C76.0725 20.2201 74.0859 19.8476 72.2545 19.382C72.4408 18.2024 72.8133 17.2402 73.0305 16.1227C73.8686 16.3711 74.6757 16.7746 75.669 16.8677C77.0658 16.9919 78.9593 16.8987 78.9283 15.6882C78.8972 14.3845 76.1967 14.1051 75.1413 13.267C73.9928 12.3668 73.2789 10.1629 74.1791 8.36259C75.669 5.56894 80.7907 4.94813 84.2983 6.43807Z" fill="#009651"/>
<path d="M85.9434 7.86593H85.3847L85.4157 7.64864H86.7815L86.7505 7.86593H86.1918L85.8813 9.57316H85.633L85.9434 7.86593Z" fill="#009651"/>
<path d="M88.2404 9.57316L88.3646 8.54882C88.3956 8.36258 88.4267 8.08321 88.4577 7.89697C88.3646 8.08321 88.2715 8.33154 88.1473 8.51778L87.5886 9.57316H87.4023L87.2471 8.54882C87.2161 8.33154 87.1851 8.11425 87.1851 7.89697C87.154 8.08321 87.0919 8.36258 87.0298 8.54882L86.7815 9.57316H86.5642L87.0609 7.64864H87.3713L87.5265 8.73506C87.5575 8.89027 87.5575 9.07651 87.5575 9.23171C87.6196 9.07651 87.7127 8.92131 87.7748 8.76611L88.3646 7.64864H88.675L88.4267 9.57316H88.2404Z" fill="#009651"/>
</svg>
