<svg width="42" height="43" viewBox="0 0 42 43" fill="none" xmlns="http://www.w3.org/2000/svg">
<path d="M32.4 26.5C33.1 26.8 33.4 27.8 33.4 28.3C33.5 29.1 33.3 29.5 33 29.5C32.7 29.5 32.3 29.2 31.9 28.5C31.5 27.8 31.3 27.1 31.5 26.7C31.8 26.5 32.1 26.4 32.4 26.5Z" fill="#F28A1A"/>
<path d="M28.3 29.6C28.7 29.6 29.2 29.8 29.7 30.2C30.5 30.9 30.8 31.7 30.4 32.3C30.2 32.6 29.7 32.8 29.3 32.8C28.8 32.8 28.3 32.6 28 32.3C27.2 31.6 27 30.6 27.5 30C27.6 29.8 27.9 29.6 28.3 29.6Z" fill="#F28A1A"/>
<path d="M18.8 37.5C8.4 37.5 0 29.1 0 18.8C0 8.5 8.4 0 18.8 0C29.2 0 37.6 8.4 37.6 18.8C37.6 22.3 36.6 25.6 35 28.4C34.9 28.5 34.8 28.5 34.8 28.3C34.1 23.7 31.3 21.2 27.3 20.4C26.9 20.3 26.9 20.1 27.4 20.1C28.7 20 30.4 20 31.4 20.2C31.5 19.7 31.5 19.2 31.5 18.8C31.5 12 25.9 6.4 19.1 6.4C12.3 6.4 6.7 12 6.7 18.8C6.7 25.6 12.3 31.2 19.1 31.2H19.7C19.5 30.1 19.4 29 19.5 27.8C19.5 27 19.7 26.9 20 27.5C21.7 30.5 24.2 33.1 29 34.2C32.9 35.1 36.8 36.1 41.1 41.4C41.5 41.9 40.9 42.4 40.5 42C36.2 38.2 32.3 36.9 28.7 36.9C24.2 37 21.5 37.5 18.8 37.5Z" fill="#F28A1A"/>
</svg>
