<svg width="71" height="28" viewBox="0 0 71 28" fill="none" xmlns="http://www.w3.org/2000/svg">
<path d="M33.5808 13.679V21.8867H30.9588V1.61729H37.9127C38.7428 1.60007 39.568 1.74626 40.3409 2.04744C41.1138 2.34862 41.8189 2.79881 42.4157 3.37204C43.0184 3.91046 43.4982 4.57078 43.8226 5.30862C44.147 6.04646 44.3087 6.84472 44.2966 7.64975C44.3139 8.45908 44.1547 9.26255 43.8301 10.0051C43.5054 10.7476 43.0229 11.4117 42.4157 11.9517C41.1997 13.1032 39.6987 13.6784 37.9127 13.6774H33.5808V13.679ZM33.5808 4.11275V11.1884H37.9779C38.4599 11.2025 38.9396 11.1167 39.3864 10.9362C39.8331 10.7558 40.237 10.4847 40.5721 10.1404C40.9056 9.81842 41.1706 9.43335 41.3516 9.00792C41.5326 8.58249 41.6259 8.12534 41.6259 7.66349C41.6259 7.20165 41.5326 6.7445 41.3516 6.31907C41.1706 5.89364 40.9056 5.50857 40.5721 5.18663C40.2412 4.83504 39.8387 4.55734 39.3914 4.37192C38.9442 4.1865 38.4623 4.09761 37.9779 4.11113H33.5808V4.11275Z" fill="#5F6368"/>
<path d="M50.3386 7.56565C52.2765 7.56565 53.8063 8.07994 54.9278 9.10853C56.0494 10.1371 56.6096 11.5474 56.6085 13.3393V21.8867H54.1005V19.9621H53.9865C52.9008 21.547 51.4568 22.3395 49.6546 22.3395C48.1161 22.3395 46.829 21.8867 45.7933 20.981C45.2962 20.5653 44.8988 20.0447 44.63 19.4572C44.3613 18.8696 44.2279 18.2299 44.2396 17.5847C44.2396 16.1496 44.7857 15.0084 45.878 14.1609C46.9702 13.3135 48.4283 12.8887 50.2523 12.8865C51.8091 12.8865 53.0914 13.1695 54.0989 13.7356V13.1404C54.1019 12.7005 54.0062 12.2655 53.8189 11.8669C53.6316 11.4683 53.3573 11.1161 53.0159 10.8358C52.3225 10.2146 51.4189 9.87559 50.4851 9.88645C49.0205 9.88645 47.8615 10.4999 47.0082 11.7269L44.6989 10.2827C45.9692 8.47133 47.8491 7.56565 50.3386 7.56565ZM46.9463 17.6413C46.9445 17.9727 47.0225 18.2997 47.1738 18.5951C47.3251 18.8905 47.5452 19.1457 47.8159 19.3395C48.3958 19.7925 49.1156 20.0324 49.8533 20.0187C50.9597 20.0169 52.0203 19.5795 52.8026 18.8025C53.6711 17.9906 54.1054 17.0381 54.1054 15.9448C53.2879 15.2979 52.1479 14.9744 50.6854 14.9744C49.6204 14.9744 48.7323 15.2294 48.0211 15.7394C47.3029 16.2569 46.9463 16.886 46.9463 17.6413Z" fill="#5F6368"/>
<path d="M71.0049 8.01849L62.2498 28H59.5431L62.7921 21.0085L57.0352 8.01849H59.8851L64.0461 17.9809H64.1031L68.15 8.01849H71.0049Z" fill="#5F6368"/>
<path d="M22.9854 11.9097C22.9864 11.1161 22.9188 10.324 22.7834 9.54197H11.7256V14.0267H18.059C17.9294 14.743 17.6551 15.4258 17.2526 16.0339C16.8502 16.6421 16.3278 17.163 15.7172 17.5653V20.4764H19.497C21.7102 18.45 22.9854 15.4531 22.9854 11.9097Z" fill="#4285F4"/>
<path d="M11.7256 23.2889C14.8899 23.2889 17.5542 22.257 19.4971 20.478L15.7172 17.5669C14.6652 18.2753 13.3102 18.6796 11.7256 18.6796C8.6672 18.6796 6.07129 16.6321 5.14301 13.873H1.24915V16.8731C2.22508 18.8017 3.72158 20.4229 5.57155 21.5558C7.42153 22.6888 9.55218 23.2888 11.7256 23.2889Z" fill="#34A853"/>
<path d="M5.14295 13.873C4.65221 12.4273 4.65221 10.8616 5.14295 9.41582V6.41576H1.24908C0.428092 8.03814 0.000518799 9.82871 0.000518799 11.6444C0.000518799 13.4602 0.428092 15.2507 1.24908 16.8731L5.14295 13.873Z" fill="#FBBC04"/>
<path d="M11.7256 4.60925C13.3978 4.58212 15.0136 5.20955 16.2237 6.35592L19.5704 3.0324C17.4482 1.05297 14.6369 -0.0337663 11.7256 1.04407e-06C9.55218 9.94155e-05 7.42153 0.600101 5.57155 1.73302C3.72158 2.86594 2.22508 4.48718 1.24915 6.41576L5.14301 9.41582C6.07129 6.65673 8.6672 4.60925 11.7256 4.60925Z" fill="#EA4335"/>
</svg>
