<svg width="64" height="38" viewBox="0 0 64 38" fill="none" xmlns="http://www.w3.org/2000/svg">
<path d="M31.7 33C35.5 29.5 37.9 24.5 37.9 19C37.9 13.4 35.5 8.4 31.7 5C28.3 2 23.9 0.0999985 19 0.0999985C8.5 0.0999985 0 8.6 0 19C0 29.5 8.5 38 19 38C23.9 37.9 28.3 36 31.7 33Z" fill="#3362AB"/>
<path d="M31.7 33C35.5 29.5 37.9 24.5 37.9 19C37.9 13.4 35.5 8.4 31.7 5" fill="#3362AB"/>
<path d="M31.7 33C35.5 29.5 37.9 24.5 37.9 19C37.9 13.4 35.5 8.4 31.7 5" stroke="#3362AB" stroke-width="0.3097"/>
<path d="M44.4 0C39.5 0 35 1.89999 31.7 4.89999C31 5.49999 30.4 6.19999 29.8 6.89999H33.6C34.1 7.49999 34.6 8.19999 35 8.89999H28.3C27.9 9.49999 27.5 10.2 27.2 10.9H36.1C36.4 11.6 36.7 12.2 36.9 12.9H26.4C26.2 13.6 26 14.2 25.8 14.9H37.4C37.7 16.2 37.8 17.5 37.8 18.9C37.8 21 37.5 23 36.8 24.9H26.3C26.5 25.6 26.8 26.3 27.1 26.9H36C35.7 27.6 35.3 28.3 34.9 28.9H28.2C28.6 29.6 29.1 30.3 29.6 30.9H33.4C32.8 31.6 32.2 32.3 31.5 32.9C34.9 35.9 39.3 37.8 44.2 37.8C54.7 37.8 63.1 29.3 63.1 18.8C63.4 8.5 54.9 0 44.4 0Z" fill="#C9191B"/>
<path d="M16.6 23.6H14.2L15.6 16.2L12.4 23.6H10.3L9.90002 16.3L8.5 23.6H6.40002L8.20001 14H11.9L12.1 20L14.7 14H18.5L16.6 23.6Z" fill="white"/>
<path d="M43 23.6C42.4 23.8 41.8 23.9 41.3 23.9C40.1 23.9 39.4 23.3 39.4 22.2C39.4 22 39.4 21.7 39.5 21.5L39.6 20.7L39.7 20.1L40.8 14.1H43.1L42.8 15.9H44L43.7 17.8H42.5L41.9 21.1C41.9 21.2 41.9 21.4 41.9 21.4C41.9 21.8 42.2 22 42.7 22C43 22 43.2 22 43.3 21.9L43 23.6Z" fill="white"/>
<path d="M49.8 15.9C49.6 15.8 49.6 15.8 49.5 15.8C49.4 15.8 49.3 15.8 49.3 15.8C49.2 15.8 49.1 15.8 49 15.8C48.2 15.8 47.7 16.1 46.9 17.1L47.1 15.9H45.2L43.8 23.7H46.2C47 18.9 47.4 18.1 48.5 18.1C48.6 18.1 48.7 18.1 48.8 18.1L49.1 18.2L49.8 15.9Z" fill="white"/>
<path d="M33.6 18.3C33.6 19.3 34.2 20 35.4 20.5C36.4 20.9 36.5 21 36.5 21.4C36.5 21.9 36.1 22.1 35.1 22.1C34.4 22.1 33.7 22 33 21.8L32.7 23.6H32.8L33.2 23.7C33.3 23.7 33.6 23.8 33.8 23.8C34.4 23.8 34.8 23.9 35.1 23.9C37.6 23.9 38.8 23.1 38.8 21.3C38.8 20.2 38.3 19.6 37.1 19.1C36.1 18.7 36 18.6 36 18.2C36 17.8 36.4 17.6 37.2 17.6C37.7 17.6 38.3 17.6 38.9 17.7L39.2 15.9C38.6 15.8 37.7 15.7 37.1 15.7C34.5 15.7 33.6 16.9 33.6 18.3Z" fill="white"/>
<path d="M22.6 20.2C22.3 20.2 22.2 20.2 22.1 20.2C20.8 20.2 20.1 20.6 20.1 21.4C20.1 21.9 20.4 22.2 20.9 22.2C21.8 22.1 22.5 21.3 22.6 20.2ZM24.3 23.6H22.3L22.4 22.8C21.8 23.4 21 23.7 19.9 23.7C18.6 23.7 17.8 22.8 17.8 21.6C17.8 19.7 19.3 18.6 21.9 18.6C22.2 18.6 22.5 18.6 22.9 18.7C23 18.4 23 18.3 23 18.2C23 17.7 22.6 17.5 21.5 17.5C20.8 17.5 20.1 17.6 19.6 17.7L19.3 17.8L19.1 17.9L19.4 16.1C20.6 15.8 21.3 15.7 22.2 15.7C24.2 15.7 25.3 16.5 25.3 18C25.3 18.4 25.3 18.7 25.1 19.5L24.6 22.3L24.5 22.8L24.4 23.2V23.5L24.3 23.6Z" fill="white"/>
<path d="M30.8 18.8C30.8 18.6 30.8 18.5 30.8 18.4C30.8 17.8 30.4 17.4 29.7 17.4C28.9 17.4 28.4 17.9 28.2 18.8H30.8ZM32 23.5C31.2 23.7 30.4 23.8 29.6 23.8C27 23.8 25.6 22.6 25.6 20.3C25.6 17.6 27.3 15.6 29.7 15.6C31.6 15.6 32.9 16.7 32.9 18.4C32.9 19 32.8 19.5 32.6 20.3H27.9C27.9 20.4 27.9 20.5 27.9 20.5C27.9 21.4 28.6 21.9 30 21.9C30.8 21.9 31.6 21.7 32.5 21.4L32 23.5Z" fill="white"/>
<path d="M54.7 19.1C54.7 18.3 54.4 17.5 53.4 17.5C52.2 17.5 51.5 18.9 51.5 20.2C51.5 21.3 52 22 52.9 22C53.4 22 54.5 21.3 54.7 20.1C54.7 19.8 54.7 19.4 54.7 19.1ZM57.2 20.1C56.8 22.7 55 23.9 52.6 23.9C49.9 23.9 48.9 22.3 48.9 20.3C48.9 17.5 50.7 15.7 53.5 15.7C56 15.7 57.2 17.2 57.2 19.2C57.3 19.6 57.3 19.6 57.2 20.1Z" fill="white"/>
</svg>
