<svg width="65" height="39" viewBox="0 0 65 39" fill="none" xmlns="http://www.w3.org/2000/svg">
<path d="M65 19.5C65 30.2 56.3 39 45.5 39C34.8 39 26 30.2 26 19.5C26 8.8 34.7 0 45.4 0C56.3 0 65 8.8 65 19.5Z" fill="#F9B50B"/>
<path d="M38.9 19.6C38.9 18.2 38.7 16.8 38.5 15.5H26.5C26.6 14.8 26.8 14.2 27 13.4H37.7C37.5 12.7 37.2 12 36.9 11.3H27.8C28.1 10.6 28.5 10 28.9 9.2H35.8C35.4 8.5 34.9 7.8 34.3 7.1H30.5C31.1 6.4 31.7 5.8 32.5 5.1C29.1 1.9 24.5 0 19.4 0C8.8 0.3 0 8.8 0 19.5C0 30.2 8.7 39 19.5 39C24.6 39 29.1 37 32.6 33.9C33.3 33.3 33.9 32.6 34.6 31.8H30.6C30.1 31.2 29.6 30.5 29.2 29.8H36C36.4 29.2 36.8 28.5 37.1 27.7H28C27.7 27.1 27.4 26.4 27.2 25.6H37.9C38.5 23.8 38.9 21.8 38.9 19.6Z" fill="#C8191C"/>
<path d="M26.4 24.5L26.7 22.7C26.6 22.7 26.4 22.8 26.2 22.8C25.5 22.8 25.4 22.4 25.5 22.2L26.1 18.6H27.2L27.5 16.6H26.5L26.7 15.4H24.6C24.6 15.4 23.4 22.2 23.4 23C23.4 24.2 24.1 24.8 25.1 24.8C25.7 24.8 26.2 24.6 26.4 24.5Z" fill="white"/>
<path d="M27.1 21.2C27.1 24.1 29.1 24.8 30.7 24.8C32.2 24.8 32.9 24.5 32.9 24.5L33.3 22.5C33.3 22.5 32.2 23 31.1 23C28.8 23 29.2 21.3 29.2 21.3H33.4C33.4 21.3 33.7 20 33.7 19.4C33.7 18.1 33 16.4 30.7 16.4C28.7 16.3 27.1 18.6 27.1 21.2ZM30.7 18.2C31.8 18.2 31.6 19.5 31.6 19.6H29.3C29.4 19.5 29.6 18.2 30.7 18.2Z" fill="white"/>
<path d="M43.8 24.5L44.2 22.2C44.2 22.2 43.2 22.7 42.4 22.7C41 22.7 40.3 21.6 40.3 20.3C40.3 17.8 41.5 16.5 43 16.5C44 16.5 44.9 17.1 44.9 17.1L45.2 14.9C45.2 14.9 44 14.4 42.8 14.4C40.4 14.4 38.1 16.5 38.1 20.4C38.1 23 39.3 24.7 41.8 24.7C42.7 24.8 43.8 24.5 43.8 24.5Z" fill="white"/>
<path d="M15.1 16.3C13.7 16.3 12.6 16.7 12.6 16.7L12.3 18.5C12.3 18.5 13.2 18.1 14.6 18.1C15.3 18.1 15.9 18.2 15.9 18.8C15.9 19.2 15.8 19.3 15.8 19.3H14.9C13.1 19.3 11.2 20 11.2 22.4C11.2 24.3 12.4 24.7 13.2 24.7C14.6 24.7 15.3 23.8 15.4 23.8L15.3 24.6H17L17.8 18.9C17.8 16.4 15.8 16.3 15.1 16.3ZM15.5 20.9C15.5 21.2 15.3 22.9 14.1 22.9C13.5 22.9 13.3 22.4 13.3 22.1C13.3 21.6 13.6 20.9 15.2 20.9C15.4 20.9 15.5 20.9 15.5 20.9Z" fill="white"/>
<path d="M19.8 24.7C20.3 24.7 22.9 24.8 22.9 22C22.9 19.4 20.4 19.9 20.4 18.9C20.4 18.4 20.8 18.2 21.5 18.2C21.8 18.2 22.9 18.3 22.9 18.3L23.2 16.4C23.2 16.4 22.5 16.2 21.2 16.2C19.7 16.2 18.1 16.8 18.1 18.9C18.1 21.3 20.7 21.1 20.7 22C20.7 22.6 20 22.7 19.5 22.7C18.6 22.7 17.6 22.4 17.6 22.4L17.3 24.3C17.5 24.5 18.1 24.7 19.8 24.7Z" fill="white"/>
<path d="M61 14.7L60.6 17.5C60.6 17.5 59.8 16.5 58.6 16.5C56.7 16.5 55.1 18.8 55.1 21.5C55.1 23.2 55.9 24.9 57.7 24.9C58.9 24.9 59.7 24.1 59.7 24.1L59.6 24.8H61.7L63.2 14.9L61 14.7ZM60 20.1C60 21.2 59.5 22.7 58.3 22.7C57.6 22.7 57.2 22.1 57.2 21C57.2 19.3 57.9 18.3 58.9 18.3C59.6 18.4 60 18.9 60 20.1Z" fill="white"/>
<path d="M3.8 24.6L5 17.2L5.2 24.6H6.6L9.3 17.2L8.2 24.6H10.4L12.1 14.7H8.7L6.6 20.8L6.5 14.7H3.5L1.8 24.6H3.8Z" fill="white"/>
<path d="M35.8 24.6C36.4 21.2 36.5 18.4 38 18.9C38.2 17.6 38.5 17 38.7 16.5H38.3C37.4 16.5 36.6 17.7 36.6 17.7L36.8 16.6H34.8L33.5 24.6H35.8Z" fill="white"/>
<path d="M48.6 16.3C47.2 16.3 46.1 16.7 46.1 16.7L45.8 18.5C45.8 18.5 46.7 18.1 48.1 18.1C48.8 18.1 49.4 18.2 49.4 18.8C49.4 19.2 49.3 19.3 49.3 19.3H48.4C46.6 19.3 44.7 20 44.7 22.4C44.7 24.3 45.9 24.7 46.7 24.7C48.1 24.7 48.8 23.8 48.9 23.8L48.8 24.6H50.7L51.5 18.9C51.5 16.4 49.3 16.3 48.6 16.3ZM49.1 20.9C49.1 21.2 48.9 22.9 47.7 22.9C47.1 22.9 46.9 22.4 46.9 22.1C46.9 21.6 47.2 20.9 48.8 20.9C49 20.9 49 20.9 49.1 20.9Z" fill="white"/>
<path d="M53.1 24.6C53.7 21.2 53.8 18.4 55.3 18.9C55.5 17.6 55.8 17 56 16.5H55.6C54.7 16.5 53.9 17.7 53.9 17.7L54.1 16.6H52.1L50.8 24.6H53.1Z" fill="white"/>
</svg>
