<svg width="78" height="19" viewBox="0 0 78 19" fill="none" xmlns="http://www.w3.org/2000/svg">
<path d="M29.4 8.1C29.2 9.6 28 9.6 26.9 9.6H26.3L26.8 6.7C26.8 6.5 27 6.4 27.2 6.4H27.5C28.3 6.4 29 6.4 29.4 6.8C29.4 7.2 29.4 7.6 29.4 8.1ZM28.9 4.1H24.6C24.3 4.1 24.1 4.3 24 4.6L22.3 15.6C22.3 15.8 22.4 16 22.7 16H24.7C25 16 25.2 15.8 25.3 15.5L25.8 12.5C25.8 12.2 26.1 12 26.4 12H27.8C30.6 12 32.2 10.6 32.7 7.9C32.9 6.7 32.7 5.8 32.2 5.1C31.4 4.5 30.3 4.1 28.9 4.1Z" fill="#263577"/>
<path d="M38.8 12.1C38.6 13.3 37.7 14.1 36.5 14.1C35.9 14.1 35.4 13.9 35.1 13.5C34.8 13.1 34.7 12.6 34.8 12.1C35 10.9 35.9 10.1 37.1 10.1C37.7 10.1 38.2 10.3 38.5 10.7C38.7 11 38.9 11.5 38.8 12.1ZM41.6 8.09999H39.6C39.4 8.09999 39.3 8.19999 39.2 8.39999L39.1 9L39 8.8C38.6 8.2 37.6 7.89999 36.6 7.89999C34.3 7.89999 32.4 9.6 32 12C31.8 13.2 32.1 14.3 32.8 15.1C33.4 15.8 34.3 16.1 35.4 16.1C37.2 16.1 38.2 14.9 38.2 14.9L38.1 15.5C38.1 15.7 38.2 15.9 38.5 15.9H40.3C40.6 15.9 40.8 15.7 40.9 15.4L42 8.39999C42 8.29999 41.9 8.09999 41.6 8.09999Z" fill="#263577"/>
<path d="M52.5 8.1H50.4C50.2 8.1 50 8.2 49.9 8.4L47.1 12.6L45.9 8.6C45.8 8.3 45.6 8.2 45.3 8.2H43.3C43.1 8.2 42.9 8.4 43 8.7L45.3 15.3L43.2 18.3C43 18.5 43.2 18.9 43.5 18.9H45.6C45.8 18.9 46 18.8 46.1 18.6L52.9 8.7C53 8.4 52.8 8.1 52.5 8.1Z" fill="#263577"/>
<path d="M59.8 8.1C59.6 9.6 58.4 9.6 57.3 9.6H56.7L57.2 6.7C57.2 6.5 57.4 6.4 57.6 6.4H57.9C58.7 6.4 59.4 6.4 59.8 6.8C59.9 7.2 59.9 7.6 59.8 8.1ZM59.3 4.1H55C54.7 4.1 54.5 4.3 54.4 4.6L52.7 15.6C52.7 15.8 52.8 16 53.1 16H55.3C55.5 16 55.7 15.9 55.7 15.6L56.2 12.5C56.2 12.2 56.5 12 56.8 12H58.2C61 12 62.6 10.6 63.1 7.9C63.3 6.7 63.1 5.8 62.6 5.1C61.9 4.5 60.8 4.1 59.3 4.1Z" fill="#2199D6"/>
<path d="M69.3 12.1C69.1 13.3 68.2 14.1 67 14.1C66.4 14.1 65.9 13.9 65.6 13.5C65.3 13.1 65.2 12.6 65.3 12.1C65.5 10.9 66.4 10.1 67.6 10.1C68.2 10.1 68.7 10.3 69 10.7C69.2 11 69.4 11.5 69.3 12.1ZM72.1 8.09999H70.1C69.9 8.09999 69.8 8.19999 69.7 8.39999L69.6 9L69.5 8.8C69.1 8.2 68.1 7.89999 67.1 7.89999C64.8 7.89999 62.9 9.6 62.5 12C62.3 13.2 62.6 14.3 63.3 15.1C63.9 15.8 64.8 16.1 65.9 16.1C67.7 16.1 68.7 14.9 68.7 14.9L68.6 15.5C68.6 15.7 68.7 15.9 69 15.9H70.8C71.1 15.9 71.3 15.7 71.4 15.4L72.5 8.39999C72.5 8.29999 72.3 8.09999 72.1 8.09999Z" fill="#2199D6"/>
<path d="M74.5 4.4L72.7 15.6C72.7 15.8 72.8 16 73.1 16H74.9C75.2 16 75.4 15.8 75.5 15.5L77.2 4.5C77.2 4.3 77.1 4.1 76.8 4.1H74.8C74.7 4.1 74.6 4.3 74.5 4.4Z" fill="#2199D6"/>
<path d="M4.5 18.1L4.79999 16H4.09999H0.599991L3 0.699997C3 0.699997 2.99999 0.599998 3.09999 0.599998H3.2H9.09999C11 0.599998 12.4 0.999999 13.1 1.8C13.4 2.2 13.6 2.6 13.7 3C13.8 3.5 13.8 4 13.7 4.7V5.1L14 5.3C14.3 5.4 14.5 5.6 14.7 5.8C15 6.1 15.2 6.5 15.2 7C15.3 7.5 15.3 8.1 15.1 8.8C14.9 9.6 14.7 10.2 14.4 10.8C14.1 11.3 13.7 11.7 13.3 12.1C12.9 12.4 12.3 12.6 11.8 12.8C11.2 12.9 10.6 13 9.89999 13H9.39999C9.09999 13 8.8 13.1 8.5 13.3C8.3 13.5 8.1 13.8 8 14.1V14.3L7.39999 18V18.1V18.2C7.39999 18.2 7.39999 18.2 7.29999 18.2H4.5V18.1Z" fill="#263577"/>
<path d="M14.4 4.7C14.4 4.8 14.4 4.9 14.3 5C13.5 9 10.9 10.3 7.5 10.3H5.79999C5.39999 10.3 5 10.6 5 11L4.09999 16.6L3.89999 18.2C3.89999 18.5 4.09999 18.7 4.29999 18.7H7.39999C7.79999 18.7 8.09999 18.4 8.09999 18.1V17.9L8.7 14.3V14.1C8.8 13.7 9.09999 13.5 9.39999 13.5H9.89999C12.9 13.5 15.2 12.3 15.8 8.8C16.1 7.3 15.9 6.1 15.2 5.3C15 5.1 14.7 4.9 14.4 4.7Z" fill="#2199D6"/>
<path d="M13.6 4.4C13.5 4.4 13.4 4.3 13.2 4.3C13.1 4.3 12.9 4.2 12.8 4.2C12.3 4.1 11.8 4.1 11.3 4.1H6.7C6.6 4.1 6.49999 4.1 6.39999 4.2C6.19999 4.3 6 4.5 6 4.7L5 10.9V11.1C5.1 10.7 5.39999 10.4 5.79999 10.4H7.5C10.9 10.4 13.5 9 14.3 5.1C14.3 5 14.3 4.9 14.4 4.8C14.2 4.7 14 4.6 13.8 4.5C13.7 4.4 13.6 4.4 13.6 4.4Z" fill="#252C5E"/>
<path d="M6 4.7C6 4.5 6.19999 4.3 6.39999 4.2C6.49999 4.2 6.6 4.1 6.7 4.1H11.3C11.8 4.1 12.4 4.1 12.8 4.2C12.9 4.2 13.1 4.2 13.2 4.3C13.3 4.3 13.4 4.4 13.6 4.4C13.7 4.4 13.7 4.4 13.8 4.5C14 4.6 14.2 4.7 14.4 4.8C14.6 3.3 14.4 2.3 13.6 1.4C12.7 0.399998 11.1 0 9.09999 0H3.2C2.8 0 2.39999 0.299997 2.39999 0.699997L0 16.1C0 16.4 0.2 16.7 0.5 16.7H4.09999L5 10.9L6 4.7Z" fill="#263577"/>
</svg>
