<svg width="104" height="31" viewBox="0 0 104 31" fill="none" xmlns="http://www.w3.org/2000/svg">
<path d="M103.7 30.3H0V0H103.7V30.3Z" fill="#13110C"/>
<path d="M36.8 5.8C34.4 5.8 33 6.8 33 8.5C33 9.6 33.5 10.4 34.7 10.7L37 11.4C37.3 11.5 37.6 11.7 37.6 12C37.6 12.4 37.3 12.7 36.8 12.7C36.5 12.7 36.3 12.6 36.2 12.4C36.1 12.2 36 12 36 11.8H32.8C32.8 14 34.7 14.6 36.7 14.6C39.1 14.6 40.7 13.7 40.7 11.7C40.7 10.7 40.2 9.9 39.2 9.5C38.4 9.1 37.2 8.9 36.6 8.7C36.3 8.6 36.1 8.5 36.1 8.2C36.1 7.9 36.3 7.7 36.9 7.7C37.3 7.7 37.6 7.9 37.6 8.4H40.6C40.4 6.4 38.9 5.8 36.8 5.8ZM82.4 5.8V24.3H83.4V5.8H82.4ZM92.9 5.9C92.3 5.9 91.8 6.4 91.8 7C91.8 7.6 92.3 8.1 92.9 8.1C93.5 8.1 94 7.6 94 7C94.1 6.4 93.6 5.9 92.9 5.9ZM9.90002 6L11.7 14.4H15.3L16.1 9L16.9 14.4H20.5L22.3 6H19.3L18.6 11.2L17.8 6H14.4L13.6 11.2L12.8 6H9.90002ZM24.2 6V14.4H30.6V12.2H27.3V11.3H30.2V9.1H27.3V8.2H30.5V6H24.2ZM42.6 6V8.2H44.7V14.3H48V8.2H50.1V6H42.6ZM52.2 6V14.4H58.7V12.2H55.4V11.3H58.3V9.1H55.4V8.2H58.6V6H52.2ZM61.1 6V14.4H64.3V11.4H64.7C65.2 11.4 65.4 11.6 65.5 12C65.6 12.7 65.7 13.8 65.9 14.4H69.1C68.7 13.1 68.8 12 68.6 11.2C68.4 10.6 68 10.2 67.2 10.1C68.4 9.8 68.9 9.1 68.9 8.1C68.9 6.5 67.8 6 66.1 6H61.1ZM71.5 6V14.4H74.2V9.3L76 14.4H80V6H77.3V11L75.5 6H71.5ZM89.9 6V24.3H90.9V6H89.9ZM92.9 6C93.4 6 93.8 6.4 93.8 7C93.8 7.5 93.4 8 92.9 8C92.4 8 92 7.6 92 7C92 6.5 92.4 6 92.9 6ZM92.5 6.4V7.6H92.7V7.1H93L93.3 7.7H93.5L93.1 7.1C93.3 7.1 93.5 7 93.5 6.8C93.5 6.6 93.4 6.5 93.1 6.5H92.5V6.4ZM92.7 6.5H93C93.2 6.5 93.3 6.5 93.3 6.7C93.3 7 93 6.9 92.9 6.9H92.7V6.5ZM64.4 7.9H64.7C65.3 7.9 65.8 8 65.8 8.6C65.8 9.2 65.3 9.5 64.7 9.5H64.4V7.9ZM64.7 15.8C61.8 15.8 60.4 17.6 60.4 20.2C60.4 22.8 61.8 24.6 64.7 24.6C67.6 24.6 69 22.8 69 20.2C69 17.6 67.6 15.8 64.7 15.8ZM32.7 16V21.6C32.7 23.6 34.1 24.6 36.7 24.6C39.2 24.6 40.7 23.6 40.7 21.6V16H37.4V21.4C37.4 22.1 37.1 22.3 36.7 22.3C36.3 22.3 36 22 36 21.4V16H32.7ZM43.4 16V24.4H46.1V19.3L47.9 24.4H51.9V16H49.2V21.1L47.4 16H43.4ZM54.6 16V24.4H57.9V16H54.6ZM71.5 16V24.4H74.2V19.3L76 24.4H80V16H77.3V21.1L75.5 16H71.5ZM64.7 18C65.2 18 65.6 18.3 65.6 20.2C65.6 22.1 65.2 22.4 64.7 22.4C64.2 22.4 63.8 22.1 63.8 20.2C63.8 18.3 64.2 18 64.7 18Z" fill="#FFDF27"/>
</svg>
